PathFileType	4	(X/Y/Z)	/Users/itak/Documents/Research/Walk-IL/dataset/trc/00585_00009.trc
DataRate	CameraRate	NumFrames	NumMarkers	Units	OrigDataRate	OrigDataStartFrame	OrigNumFrames
100.000000	100.000000	4	74	mm	100.000000	86	99
Frame#	Time	RFHD			RWTS			STRN			CLAV			RWPS			RFRA			RUPA			RAEL			RAOL			RBHD			LBHD			RSHO			C7			LBAK			LWTS			RBAK			LSHO			RKNE			LHIP			LWPS			RTIP			LAEL			LFHD			LUPA			LFRA			LAOL			RMT5			LTOE			RTOE			RMT1			RANK			T10			RHEE			LTHI			L3			RHIP			RPSI			RASI			LMT1			LPSI			LHEE			RTHI			LANK			LTIP			LKNE			RHTS			RHPS			LASI			RIFD			LHTS			LMT5			LHPS			LIFD			*53			*54			*55			*56			*57			*58			*59			*60			*61			*62			*63			*64			*65			*66			*67			*68			*69			*70			*71			*72			*73			
		X1	Y1	Z1	X2	Y2	Z2	X3	Y3	Z3	X4	Y4	Z4	X5	Y5	Z5	X6	Y6	Z6	X7	Y7	Z7	X8	Y8	Z8	X9	Y9	Z9	X10	Y10	Z10	X11	Y11	Z11	X12	Y12	Z12	X13	Y13	Z13	X14	Y14	Z14	X15	Y15	Z15	X16	Y16	Z16	X17	Y17	Z17	X18	Y18	Z18	X19	Y19	Z19	X20	Y20	Z20	X21	Y21	Z21	X22	Y22	Z22	X23	Y23	Z23	X24	Y24	Z24	X25	Y25	Z25	X26	Y26	Z26	X27	Y27	Z27	X28	Y28	Z28	X29	Y29	Z29	X30	Y30	Z30	X31	Y31	Z31	X32	Y32	Z32	X33	Y33	Z33	X34	Y34	Z34	X35	Y35	Z35	X36	Y36	Z36	X37	Y37	Z37	X38	Y38	Z38	X39	Y39	Z39	X40	Y40	Z40	X41	Y41	Z41	X42	Y42	Z42	X43	Y43	Z43	X44	Y44	Z44	X45	Y45	Z45	X46	Y46	Z46	X47	Y47	Z47	X48	Y48	Z48	X49	Y49	Z49	X50	Y50	Z50	X51	Y51	Z51	X52	Y52	Z52	X53	Y53	Z53	X54	Y54	Z54	X55	Y55	Z55	X56	Y56	Z56	X57	Y57	Z57	X58	Y58	Z58	X59	Y59	Z59	X60	Y60	Z60	X61	Y61	Z61	X62	Y62	Z62	X63	Y63	Z63	X64	Y64	Z64	X65	Y65	Z65	X66	Y66	Z66	X67	Y67	Z67	X68	Y68	Z68	X69	Y69	Z69	X70	Y70	Z70	X71	Y71	Z71	X72	Y72	Z72	X73	Y73	Z73	X74	Y74	Z74	

87	0.86	1379.67822265625	1588.37060546875	1135.089111328125	1290.5107421875	990.0059204101562	1233.862060546875	1382.05810546875	1202.010986328125	1028.231201171875	1368.810302734375	1312.957641601562	1024.9970703125	1270.792602539062	946.5938110351562	1300.855712890625	1099.98828125	1029.505493164062	1259.915283203125	1132.26513671875	1330.642700195312	1169.628784179688	1065.996337890625	1071.7158203125	1247.71484375	1023.946166992188	1033.193969726562	1212.063720703125	1260.700073242188	1588.62744140625	1060.497192382812	1362.892578125	1587.531005859375	930.4111328125	1188.529663085938	1382.365966796875	1117.24365234375	1209.234375	1418.704711914062	957.9053955078125	1215.371337890625	1370.950927734375	859.7387084960938	1447.096313476562	1091.020385742188	901.6909790039062	1101.802734375	1293.05712890625	996.4720458984375	1340.940795898438	1402.928833007812	833.3348999023438	1432.494140625	485.931884765625	1234.196166992188	1391.940551757812	840.7322387695312	833.0747680664062	1490.99658203125	1020.098937988281	877.505126953125	1454.540405273438	338.7809753417969	1206.305786132812	1353.765014648438	1111.703979492188	685.4939575195312	1464.004272460938	1589.591552734375	1017.49853515625	1353.11376953125	1290.3798828125	736.7533569335938	1399.984375	1079.666137695312	737.197265625	1258.991577148438	1068.50341796875	674.7561645507812	1437.954711914062	40.17953491210938	1181.235717773438	1365.502075195312	81.63825225830078	892.8388671875	1549.49658203125	37.31784439086914	1197.569458007812	1528.1396484375	43.48311614990234	1120.93408203125	1348.720947265625	36.41419219970703	1079.966918945312	1161.185668945312	1138.092651367188	910.8541870117188	1343.784912109375	28.66427803039551	1003.318725585938	1538.171020507812	624.887939453125	948.066162109375	1166.290405273438	1008.098083496094	915.3403930664062	1182.0439453125	854.9208984375	1152.758666992188	1127.71630859375	890.9563598632812	977.1912231445312	1275.109985351562	907.0689086914062	1144.653076171875	1304.288208007812	127.3301239013672	911.7405395507812	1199.443603515625	890.503173828125	864.18408203125	1195.448974609375	283.889404296875	829.5781860351562	1272.571044921875	734.752685546875	1206.476440429688	1256.63232421875	234.6886138916016	794.8533325195312	1427.391479492188	356.43408203125	905.6851806640625	1603.141845703125	486.5767822265625	1031.964599609375	1361.904663085938	999.3267822265625	1276.197509765625	1341.82470703125	942.6495361328125	1322.46728515625	1420.625854492188	885.0447998046875	910.9396362304688	1410.070922851562	937.2396240234375	1255.423217773438	1508.355712890625	1078.7109375	950.1605834960938	1332.24267578125	143.4562835693359	809.1404418945312	1520.5390625	1014.618347167969	928.8069458007812	1506.589721679688	1034.004028320312	1029.98095703125	nan	nan	nan	nan	nan	nan	nan	nan	nan	nan	nan	nan	nan	nan	nan	nan	nan	nan	nan	nan	nan	nan	nan	nan	nan	nan	nan	nan	nan	nan	nan	nan	nan	nan	nan	nan	nan	nan	nan	nan	nan	nan	nan	nan	nan	nan	nan	nan	nan	nan	nan	nan	nan	nan	nan	nan	nan	nan	nan	nan	nan	nan	nan	
88	0.87	1408.438598632812	1585.558471679688	1154.087280273438	1337.47216796875	993.2806396484375	1252.726318359375	1410.968872070312	1198.026611328125	1046.159423828125	1397.295288085938	1308.949829101562	1042.766845703125	1323.018310546875	950.94091796875	1321.912841796875	1147.544677734375	1025.083129882812	1287.38427734375	1165.027221679688	1324.634887695312	1192.736572265625	1111.210205078125	1065.370361328125	1276.461181640625	1069.832153320312	1024.338012695312	1243.039672851562	1289.173706054688	1586.005493164062	1079.919921875	1390.822021484375	1584.526733398438	949.4315795898438	1218.519287109375	1378.381103515625	1138.799682617188	1235.978515625	1415.45458984375	978.7369384765625	1241.135375976562	1367.547607421875	880.6407470703125	1472.387817382812	1079.083862304688	913.8156127929688	1129.282348632812	1288.867919921875	1018.765808105469	1366.224487304688	1399.62255859375	851.8404541015625	1454.976318359375	478.6798706054688	1247.6826171875	1421.317138671875	836.9307250976562	854.5288696289062	1516.10107421875	1009.776184082031	884.7575073242188	1470.428466796875	331.62451171875	1214.7880859375	1374.007446289062	1109.943481445312	700.968505859375	1492.315185546875	1586.453735351562	1036.164916992188	1375.910888671875	1287.910522460938	754.164794921875	1421.269653320312	1075.531616210938	749.8800659179688	1278.348754882812	1068.3876953125	691.0025024414062	1437.3916015625	40.52877044677734	1180.761962890625	1434.532958984375	78.73747253417969	935.0282592773438	1548.992919921875	37.01031112670898	1197.041015625	1527.630126953125	43.07577896118164	1120.33349609375	1348.1728515625	38.39793395996094	1079.83154296875	1188.198852539062	1134.214233398438	930.5506591796875	1342.627197265625	31.13149452209473	1003.110473632812	1576.048217773438	630.7539672851562	972.4937744140625	1193.317626953125	1003.805480957031	934.0612182617188	1207.486572265625	851.8423461914062	1172.252197265625	1154.909790039062	887.33056640625	995.7171020507812	1300.8046875	903.4976196289062	1165.392944335938	1370.247192382812	120.4671478271484	952.505126953125	1227.826538085938	885.366943359375	883.181396484375	1251.750732421875	265.8940734863281	866.0819091796875	1298.4677734375	730.2516479492188	1224.715209960938	1316.1220703125	219.9766387939453	832.7008056640625	1478.902954101562	354.5052185058594	938.3009643554688	1646.796508789062	497.4140319824219	1059.420043945312	1410.82421875	1006.145568847656	1290.937377929688	1395.513549804688	950.4935913085938	1339.9794921875	1448.925415039062	881.5087890625	932.5855712890625	1460.765869140625	945.7718505859375	1269.573974609375	1534.37060546875	1063.95166015625	960.5112915039062	1397.492309570312	134.7989044189453	849.6556396484375	1546.5	1001.366271972656	935.1554565429688	1534.930297851562	1013.963195800781	1037.40673828125	nan	nan	nan	nan	nan	nan	nan	nan	nan	nan	nan	nan	nan	nan	nan	nan	nan	nan	nan	nan	nan	nan	nan	nan	nan	nan	nan	nan	nan	nan	nan	nan	nan	nan	nan	nan	nan	nan	nan	nan	nan	nan	nan	nan	nan	nan	nan	nan	nan	nan	nan	nan	nan	nan	nan	nan	nan	nan	nan	nan	nan	nan	nan	
89	0.88	1437.278198242188	1583.629272460938	1173.184814453125	1383.6298828125	998.7274780273438	1270.24609375	1439.82275390625	1195.615234375	1064.149536132812	1425.748901367188	1306.489868164062	1060.5634765625	1374.365112304688	957.419189453125	1341.135131835938	1194.810180664062	1022.941528320312	1313.32763671875	1197.736938476562	1320.569580078125	1215.212158203125	1156.326416015625	1061.273071289062	1303.811645507812	1115.64501953125	1017.972778320312	1272.581909179688	1317.722900390625	1584.472412109375	1099.466186523438	1418.813720703125	1582.655395507812	968.5814208984375	1248.586547851562	1376.060791015625	1160.001342773438	1262.94287109375	1413.387084960938	999.380126953125	1267.050903320312	1365.301147460938	901.4303588867188	1497.457763671875	1069.044921875	925.904296875	1157.049682617188	1286.13623046875	1040.967529296875	1391.552734375	1397.274780273438	870.3130493164062	1475.89404296875	471.6663208007812	1261.037231445312	1450.456909179688	834.9945678710938	875.5828857421875	1541.02685546875	1001.470825195312	892.2549438476562	1484.700317382812	325.0840454101562	1223.434448242188	1394.232421875	1109.218139648438	716.5459594726562	1520.702392578125	1584.2431640625	1054.935791015625	1398.686645507812	1286.4345703125	771.6056518554688	1442.48291015625	1072.70947265625	762.72119140625	1297.77685546875	1069.121948242188	707.68798828125	1437.001953125	40.74363708496094	1180.654052734375	1505.037963867188	75.94556427001953	979.64794921875	1548.357543945312	37.09461975097656	1196.767211914062	1526.982421875	43.39140701293945	1120.283935546875	1347.814453125	41.21865844726562	1080.4521484375	1215.282470703125	1131.833618164062	950.4212646484375	1341.608764648438	35.47152709960938	1003.665161132812	1612.546752929688	637.8936767578125	996.1322631835938	1220.40869140625	1001.130615234375	953.1098022460938	1233.356323242188	849.9456176757812	1191.594848632812	1182.405151367188	885.3720703125	1014.444946289062	1327.059448242188	900.8318481445312	1185.89208984375	1437.937622070312	113.4439392089844	995.6077880859375	1256.311157226562	882.1687622070312	902.3831787109375	1309.764038085938	245.7890167236328	904.6318969726562	1324.094848632812	726.6395874023438	1242.61865234375	1377.156616210938	203.2705993652344	872.745849609375	1530.2958984375	351.8386840820312	971.3722534179688	1688.581298828125	509.1502380371094	1085.754638671875	1458.52197265625	1015.119995117188	1304.44921875	1447.8974609375	960.40087890625	1355.671508789062	1477.24462890625	879.529541015625	953.9185791015625	1510.2900390625	956.70751953125	1282.309692382812	1559.939697265625	1051.13818359375	971.03466796875	1464.220947265625	125.0201721191406	892.5274047851562	1572.041748046875	990.2210083007812	941.7973022460938	1562.274536132812	995.9908447265625	1044.953369140625	nan	nan	nan	nan	nan	nan	nan	nan	nan	nan	nan	nan	nan	nan	nan	nan	nan	nan	nan	nan	nan	nan	nan	nan	nan	nan	nan	nan	nan	nan	nan	nan	nan	nan	nan	nan	nan	nan	nan	nan	nan	nan	nan	nan	nan	nan	nan	nan	nan	nan	nan	nan	nan	nan	nan	nan	nan	nan	nan	nan	nan	nan	nan	
90	0.89	1466.05908203125	1582.685791015625	1192.328002929688	1428.458129882812	1006.276977539062	1286.406005859375	1468.567504882812	1194.854125976562	1082.15234375	1454.142578125	1305.66259765625	1078.339721679688	1424.213012695312	965.8790893554688	1358.457885742188	1241.165161132812	1023.026184082031	1337.548095703125	1230.167602539062	1318.532592773438	1236.97705078125	1200.743896484375	1059.39697265625	1329.485595703125	1160.757202148438	1014.082458496094	1300.395751953125	1346.236083984375	1584.06640625	1119.044799804688	1446.809204101562	1582.03173828125	987.8035888671875	1278.571533203125	1375.454223632812	1180.723266601562	1290.05712890625	1412.530639648438	1019.727783203125	1293.057861328125	1364.2255859375	922.010009765625	1522.2900390625	1061.27587890625	937.9511108398438	1184.991577148438	1284.888671875	1063.00244140625	1416.872680664062	1395.983764648438	888.6767578125	1495.357177734375	465.0050659179688	1274.241577148438	1479.307983398438	834.9360961914062	896.16650390625	1565.558837890625	995.293212890625	900.2371826171875	1497.584228515625	319.283203125	1232.2744140625	1414.416259765625	1109.614624023438	732.1456909179688	1549.0703125	1583.130004882812	1073.784301757812	1421.3994140625	1286.039672851562	789.0267944335938	1463.582397460938	1071.276000976562	775.73828125	1317.26171875	1070.787963867188	724.73291015625	1436.872314453125	40.86030960083008	1180.8583984375	1576.322875976562	73.69489288330078	1026.208374023438	1547.72998046875	37.38130569458008	1196.61865234375	1526.382568359375	44.18677520751953	1120.659790039062	1347.729858398438	45.03383636474609	1081.812377929688	1242.446411132812	1130.924682617188	970.4695434570312	1340.891357421875	41.68518447875977	1004.994384765625	1647.383056640625	645.9552001953125	1018.83642578125	1247.619018554688	1000.03515625	972.4838256835938	1259.631958007812	849.175048828125	1210.754028320312	1210.144287109375	884.9876708984375	1033.325317382812	1353.788940429688	899.1183471679688	1206.062744140625	1506.75830078125	106.725959777832	1040.716064453125	1284.832275390625	880.8667602539062	921.7232666015625	1369.199340820312	224.2901611328125	945.306640625	1349.408447265625	723.8914184570312	1260.182373046875	1439.35498046875	185.1765594482422	914.9803466796875	1581.219970703125	348.5617980957031	1004.685729980469	1728.155639648438	521.3233642578125	1110.67822265625	1504.4736328125	1026.111450195312	1316.778442382812	1498.39306640625	972.177734375	1369.558715820312	1505.531616210938	879.1521606445312	974.8555908203125	1558.017700195312	969.8712158203125	1293.6298828125	1585.114379882812	1040.737670898438	981.6759033203125	1531.88232421875	114.6240692138672	937.4710083007812	1597.024780273438	981.4598999023438	948.9629516601562	1588.607299804688	980.9633178710938	1052.816284179688	nan	nan	nan	nan	nan	nan	nan	nan	nan	nan	nan	nan	nan	nan	nan	nan	nan	nan	nan	nan	nan	nan	nan	nan	nan	nan	nan	nan	nan	nan	nan	nan	nan	nan	nan	nan	nan	nan	nan	nan	nan	nan	nan	nan	nan	nan	nan	nan	nan	nan	nan	nan	nan	nan	nan	nan	nan	nan	nan	nan	nan	nan	nan	
